<svg xmlns="http://www.w3.org/2000/svg" xml:space="preserve" fill-rule="evenodd" clip-rule="evenodd" image-rendering="optimizeQuality" shape-rendering="geometricPrecision" text-rendering="geometricPrecision" viewBox="0 0 1453 1481">
  <path d="M1372 909c-44-25-8-25-44-47-23 49 8 134-8 200-33-42 6-26-117-172-38-46-97-122-47-187-272 39-2 434-39 565-11 6 20 14-30 7-41-6-24-53-36-81l-18 46c-20 65-38 105-110 107 16-81 25-240 57-297 20-35 35-34 71-50-94-35-149-64-245 83-47 71-92 197-139 254-139 166-331-126-133-205 59-23 117-7 175-1-72-149-360 32-532-46-120-54-65-228 201-139 71 23 59 47 91 81 37-153 13-195-202-300-311-153-162-165-134-303-2 1-4 1-5 5l-16 14c-10 11-11 13-19 26-72 104-34 156-49 192-15 37-56 47-41 130 10 52 43 81 79 95-24 97-46 178 36 240 76 59 162 51 270 35-8 100 0 198 60 242 93 69 151 37 240 5 52 110 132 81 193 9 54-5 77 16 117-26 28-30 31-65 53-87 84 73 179 2 217-53l58-112c24-50 26-90 23-151 30-22 57-2 75-118 12-79-8-118-53-148-69-48-210-93-256-145 82-2 280 12 313 104l17 53c68-336-339-128-422-299l-6-14-2-7c-26 75-45 118 9 182 65 77 226 134 301 181 33 20 130 103 47 132zm-188 342c85-33 104-111 55-201-26-47-99-137-133-168 14 133 96 229 78 369zM369 870c-40-30-266-174-306-136-52 49 57 97 97 109 62 18 143 26 209 27zm517 221c-19 37-176 271-135 314 45 47 98-67 110-106 17-59 28-146 25-208z" class="fil0"/>
  <path d="m525 319 98-22c-18 56-106 201-187 156-29-17-9 7-24-32-21-50-60-171-54-226 1-15 3-26 11-39 10-17-1-1 12-16l20-21c-50 12-87 37-103 83-130-3-189 122-100 255 74 113 184 174 129 284 124-21 111-94 118-214 83 16 113-24 151-65 48-52 80-116 106-135 48 47 49 142 275 87 293-71 194-112 252 11 14-28 18-44 24-83 128-7 139 158 161 194-26-91-25-171-101-230-48-37-47-7-123-56-48-31-85-29-149-31 92-58 132-15 162 3 67-224-248-19-304-2-48 15-69 17-61 77 97 5 177-20 269-5-33 29-156 57-198 65-105 19-146 6-189-65 6-32 54-123 72-152 30-50 62-85 142-81-68-56-108-12-154-24-47-13-93-57-159-21-81 45-86 194-96 305zM374 562c-9-63-29-122-49-179-6-19-21-76-28-88-42-77-186-14 43 233l14 14 20 20zm229-332 55 4c19-18 119-178 59-200-67-23-109 128-114 196zm-23 1001-41-23-9 61c27 10 20 1 36 5 11 24 5 35 19 53 37-75 8-102 19-125 1-2 26 7 11-36-32-10-35 18-35 65zm608-467v52l53 2 6 51 49-1 1-53-53-4-2-48zm-938 483 48 15 6 51 48 4 7-51-52-10c1-30 7-29-7-51l-45-3-5 45z" class="fil0"/>
  <path d="m844 119 26 39c23-9 27-15 47-25l35 34 38-26-27-44-22 13c-25 13-2 3-24 12-22-22-14-21-36-33l-37 30zM488 328c-19-18-28-35-66-31l-8 38c64 4 38-4 75 26 12-81 6-90-53-134-16-13-28-27-36-36 2 79 71 52 88 137zM178 618l53 5 6-53-54-7zm975-205c-26 22-28 17-36 62 39-4 35 4 59-23-27-19 0 0-34-6 19-18 27-19 31-53l-41-3c7 29-23 14 21 23zM134 555l51 7c0-4 3-27 2-30-2-23-4-19-6-24l-44-7-3 54zm314-445 28 44 42-30-27-41z" class="fil0"/>
</svg>
